<?xml version="1.0" encoding="utf-8"?>
<!-- Generator: Adobe Illustrator 23.0.1, SVG Export Plug-In . SVG Version: 6.00 Build 0)  -->
<svg version="1.1" id="Layer_1" xmlns="http://www.w3.org/2000/svg" xmlns:xlink="http://www.w3.org/1999/xlink" x="0px" y="0px"
	 viewBox="0 0 120 120" style="enable-background:new 0 0 120 120;" xml:space="preserve">
<style type="text/css">
	.st0{display:none;}
	.st1{display:inline;fill:#EE4DA8;}
	.st2{display:inline;fill:#211E1F;}
	.st3{display:inline;}
	.st4{fill:#2C3330;}
	.st5{fill:#FFFFFF;}
	.st6{display:inline;fill:#2D388C;}
	.st7{display:inline;fill:#FFFFFF;}
	.st8{fill:#211E1F;}
	.st9{display:inline;fill:#2C3330;}
	.st10{fill:#EE4DA8;}
	.st11{fill:#2D388C;}
</style>
<g id="XMLID_5_" class="st0">
	<polygon id="XMLID_216_" class="st1" points="56.08,55.31 56.81,54.61 57.35,54.77 59.95,58.62 59.68,58.78 	"/>
	<polygon id="XMLID_214_" class="st1" points="59.84,54.64 60.54,58.39 61.41,54.73 60.64,54.34 	"/>
	<polygon id="XMLID_210_" class="st1" points="61.07,58.44 63.67,54.86 64.53,54.75 65.3,55.54 61.34,58.58 	"/>
	<polygon id="XMLID_209_" class="st1" points="61.56,58.96 64.83,57.35 64.71,57.96 64.71,58.76 61.56,59.46 	"/>
	<polygon id="XMLID_180_" class="st1" points="56.56,57.19 59.43,59.01 59.3,59.55 56.4,58.53 	"/>
	<path id="XMLID_177_" class="st2" d="M65.7,59.93c-1.47-2.2,0.53-4.3,0.53-4.3l-1.53-1.51c-2.6,0.87-4.04-0.38-4.04-0.38
		c-2,1.22-4,0.22-4,0.22L55.2,55.4c1.73,2.46-0.09,4.39-0.09,4.39c-0.58,2.29-0.31,3.5-0.31,3.5c0.07,1.22,0.93,2.09,1.11,2.26
		c0.18,0.18,1.74,1.11,2.58,1.57c1.24,0.69,1.82,1.73,1.82,1.73c0.52-0.7,1.92-1.67,2.42-1.96c0.51-0.3,1.39-0.68,2.33-1.28
		c0.93-0.6,1.22-1.31,1.22-3.08C66.28,60.77,65.7,59.93,65.7,59.93 M64.91,65.49c-0.9,0.58-1.76,0.95-2.25,1.24
		c-0.49,0.29-1.84,1.22-2.35,1.9c0,0-0.56-1.01-1.76-1.68c-0.81-0.45-2.32-1.35-2.5-1.53c-0.17-0.17-1.01-1.01-1.08-2.19
		c0,0-0.26-1.18,0.3-3.4c0,0,1.87-1.98,0.2-4.37l1.31-1.29c0,0,1.94,0.97,3.87-0.21c0,0,1.4,1.2,3.92,0.37l1.38,1.36
		c0,0-1.83,2.15-0.41,4.28c0,0,0.56,0.82,0.56,2.54C66.1,64.23,65.82,64.91,64.91,65.49"/>
	<g id="XMLID_174_" class="st3">
		<path class="st4" d="M60.3,68.87L60.3,68.87c-0.01-0.01-0.59-1.05-1.82-1.73c-0.85-0.47-2.4-1.4-2.58-1.57
			c-0.67-0.67-1.07-1.48-1.11-2.26c0-0.01-0.26-1.25,0.31-3.51c0,0,0.22-0.23,0.42-0.62c-0.21,0.39-0.42,0.62-0.42,0.62
			c-0.57,2.26-0.31,3.49-0.31,3.5c0.04,0.79,0.44,1.59,1.11,2.26c0.18,0.18,1.73,1.11,2.58,1.57C59.68,67.8,60.27,68.81,60.3,68.87
			c0.55-0.73,1.99-1.71,2.42-1.97c0.18-0.11,0.41-0.22,0.67-0.36c0.47-0.24,1.05-0.54,1.65-0.92c0.94-0.6,1.22-1.32,1.22-3.08
			c0-1.76-0.57-2.61-0.58-2.62l0,0c-0.51-0.77-0.6-1.53-0.49-2.19c-0.1,0.64-0.02,1.41,0.5,2.19l0,0c0.01,0.01,0.58,0.86,0.58,2.62
			c0,1.76-0.29,2.48-1.22,3.08c-0.6,0.39-1.18,0.68-1.65,0.92c-0.26,0.13-0.49,0.25-0.67,0.36C62.29,67.16,60.85,68.14,60.3,68.87
			L60.3,68.87z M60.31,68.64L60.31,68.64c-0.01-0.01-0.57-1.02-1.76-1.68c-0.82-0.45-2.32-1.35-2.5-1.53
			c-0.65-0.65-1.03-1.43-1.08-2.19c0-0.01-0.25-1.21,0.3-3.4c0,0,0.23-0.24,0.45-0.65c-0.22,0.41-0.44,0.65-0.45,0.65
			c-0.55,2.19-0.3,3.38-0.3,3.39c0.04,0.76,0.42,1.54,1.07,2.19c0.17,0.17,1.68,1.07,2.5,1.53C59.71,67.6,60.28,68.58,60.31,68.64
			c0.53-0.71,1.93-1.66,2.35-1.9c0.17-0.1,0.39-0.21,0.65-0.34c0.46-0.23,1.02-0.52,1.61-0.9l0,0c0.91-0.58,1.18-1.28,1.18-2.98
			c0-1.7-0.55-2.53-0.56-2.54c-0.51-0.77-0.6-1.54-0.5-2.21c-0.09,0.65-0.02,1.43,0.5,2.21c0.01,0.01,0.56,0.84,0.56,2.54
			c0,1.71-0.28,2.41-1.18,2.99l0,0c-0.58,0.38-1.15,0.66-1.61,0.9c-0.25,0.13-0.47,0.24-0.65,0.34
			C62.24,66.98,60.84,67.93,60.31,68.64L60.31,68.64z M56.16,57.73c0.04-0.64-0.1-1.42-0.69-2.26l1.31-1.29
			c0.01,0,0.49,0.24,1.21,0.34c0.66,0.08,1.66,0.06,2.66-0.55c0.01,0,0.3,0.25,0.85,0.44c-0.55-0.19-0.84-0.43-0.85-0.44
			c-1.91,1.17-3.85,0.22-3.87,0.21l-1.31,1.29C56.05,56.3,56.2,57.07,56.16,57.73z M55.94,57.7c0.02-0.65-0.14-1.44-0.74-2.29
			l1.46-1.44c0.01,0,0.48,0.23,1.17,0.33c-0.7-0.1-1.16-0.33-1.17-0.33L55.2,55.4C55.79,56.25,55.97,57.03,55.94,57.7z M65.45,56.48
			c0.24-0.48,0.49-0.78,0.5-0.79l-1.38-1.35c-1.12,0.37-2.02,0.34-2.68,0.19c0.61,0.14,1.53,0.19,2.68-0.19l1.38,1.36
			C65.95,55.7,65.69,56,65.45,56.48z M65.71,56.35c0.26-0.45,0.52-0.73,0.52-0.73l-1.53-1.51c-1.13,0.38-2.04,0.35-2.71,0.2
			c0.63,0.14,1.56,0.18,2.71-0.21l1.54,1.51C66.23,55.63,65.97,55.9,65.71,56.35z M58.5,54.34c-0.13,0-0.25-0.01-0.37-0.02
			c0.11,0.01,0.24,0.01,0.36,0.01c0.63,0,1.4-0.13,2.17-0.61c0,0,0.29,0.24,0.82,0.44c-0.53-0.19-0.81-0.43-0.82-0.43
			C59.9,54.2,59.15,54.34,58.5,54.34z"/>
	</g>
	<path id="XMLID_171_" class="st2" d="M65.35,60.03c-1.35-2.02,0.28-4.34,0.28-4.34l-1.08-1.1c-2.42,0.64-3.94-0.4-3.94-0.4
		c-2.02,1.06-3.84,0.26-3.84,0.26l-0.98,1.02c1.59,2.26-0.25,4.44-0.25,4.44c-0.53,2.1-0.31,3.11-0.31,3.11
		c0.06,1.13,0.84,1.8,1,1.96c0.16,0.16,1.61,0.96,2.38,1.38c1.14,0.64,1.71,1.46,1.71,1.46c0.73-0.62,1.77-1.18,2.23-1.45
		c0.47-0.27,1.18-0.68,2.04-1.36c0.76-0.6,1.14-1.51,1.14-2.6C65.73,60.77,65.35,60.03,65.35,60.03 M64.44,64.87
		c-0.82,0.65-1.54,1.01-1.99,1.27c-0.44,0.26-1.42,0.79-2.11,1.38c0,0-0.65-0.79-1.74-1.4c-0.73-0.41-2.11-1.19-2.27-1.35
		c-0.16-0.16-0.86-0.82-0.92-1.89c0,0-0.14-0.96,0.36-2.97c0,0,1.8-2.21,0.29-4.37l0.79-0.85c0,0,1.83,0.76,3.74-0.25
		c0,0,1.58,1,3.88,0.39l0.9,0.92c0,0-1.56,2.35-0.28,4.28c0,0,0.41,0.73,0.41,2.3C65.52,63.36,65.16,64.29,64.44,64.87"/>
	<g id="XMLID_163_" class="st3">
		<path class="st5" d="M60.32,67.82L60.32,67.82c-0.01-0.01-0.58-0.83-1.71-1.46l-0.15-0.08c-0.78-0.43-2.08-1.14-2.23-1.3
			c-0.01-0.01-0.03-0.03-0.04-0.04c-0.22-0.22-0.9-0.87-0.96-1.92c0-0.01-0.22-1.03,0.31-3.11c0,0,0.24-0.29,0.47-0.75
			c-0.23,0.46-0.46,0.74-0.47,0.75c-0.52,2.08-0.31,3.1-0.31,3.11c0.06,1.04,0.73,1.7,0.96,1.92c0.02,0.02,0.03,0.03,0.04,0.04
			c0.15,0.15,1.45,0.87,2.23,1.3l0.15,0.08C59.72,66.98,60.29,67.78,60.32,67.82c0.62-0.53,1.47-1.02,1.98-1.31
			c0.1-0.06,0.18-0.1,0.25-0.15l0.06-0.03c0.46-0.27,1.16-0.68,1.98-1.33c0.74-0.59,1.14-1.49,1.14-2.6c0-1.61-0.37-2.37-0.38-2.38
			c-0.51-0.76-0.59-1.57-0.5-2.28c-0.09,0.68-0.02,1.5,0.5,2.27l0,0c0,0.01,0.38,0.76,0.38,2.38c0,1.11-0.39,2.01-1.14,2.6
			c-0.82,0.65-1.52,1.06-1.98,1.33l-0.06,0.03c-0.07,0.04-0.16,0.09-0.25,0.15C61.79,66.81,60.94,67.3,60.32,67.82L60.32,67.82z
			 M60.35,67.52c-0.01-0.01-0.67-0.8-1.74-1.4c-0.72-0.4-2.11-1.19-2.27-1.35l-0.02-0.02c-0.56-0.56-0.86-1.19-0.89-1.87
			c0-0.01-0.14-0.98,0.36-2.97c0,0,0.25-0.31,0.48-0.8c-0.23,0.49-0.47,0.79-0.48,0.8c-0.5,1.99-0.36,2.96-0.36,2.97
			c0.04,0.68,0.34,1.31,0.89,1.87l0.02,0.02c0.16,0.16,1.55,0.95,2.27,1.35C59.68,66.72,60.34,67.51,60.35,67.52
			c0.59-0.5,1.39-0.97,1.88-1.25c0.09-0.05,0.17-0.1,0.23-0.14c0.09-0.05,0.19-0.11,0.3-0.17c0.44-0.24,1.03-0.58,1.68-1.1l0,0l0,0
			c0.69-0.55,1.07-1.46,1.07-2.54c0-1.54-0.41-2.29-0.41-2.3c-0.5-0.75-0.56-1.57-0.46-2.29c-0.1,0.69-0.04,1.52,0.46,2.28
			c0,0.01,0.41,0.75,0.41,2.3c0,1.09-0.38,1.99-1.07,2.55c-0.65,0.52-1.25,0.85-1.68,1.1c-0.11,0.06-0.21,0.12-0.3,0.17
			c-0.07,0.04-0.15,0.08-0.23,0.14C61.74,66.55,60.93,67.02,60.35,67.52z M56.65,57.78c0.07-0.66-0.03-1.45-0.58-2.24l0.8-0.85
			c0.01,0,0.47,0.19,1.15,0.25c0.63,0.06,1.6,0.02,2.59-0.5c0.01,0,0.41,0.25,1.08,0.42c0.62,0.16,1.62,0.28,2.8-0.04l0.9,0.92
			c0,0.01-0.27,0.41-0.49,1.01c0.22-0.6,0.48-1,0.49-1.01l-0.9-0.91c-0.53,0.14-1.03,0.2-1.48,0.2c-1.46,0-2.39-0.58-2.4-0.58
			c-1.89,1-3.72,0.26-3.74,0.25l-0.79,0.85C56.61,56.31,56.72,57.09,56.65,57.78z M56.42,57.74c0.06-0.66-0.07-1.46-0.63-2.26
			l0.98-1.02c0.01,0,0.47,0.2,1.17,0.27c0.65,0.06,1.63,0.02,2.68-0.53c0.01,0,0.39,0.26,1.06,0.44c0.62,0.16,1.63,0.29,2.88-0.04
			l1.08,1.1c0,0.01-0.26,0.37-0.48,0.93c0.22-0.56,0.47-0.93,0.48-0.93l-1.08-1.1c-2.39,0.63-3.93-0.39-3.94-0.4
			c-1.99,1.04-3.82,0.27-3.84,0.26l-0.98,1.02C56.35,56.27,56.48,57.05,56.42,57.74z"/>
	</g>
	<path id="XMLID_162_" class="st6" d="M56.16,65.51c0,0-0.94-0.75-1.11-2.2c0,0,1.83-0.9,5.43-0.9c3.6,0,5.59,0.97,5.59,0.97
		s0.11,1.39-1.2,2.2h2.99l-0.97-1.89L68,61.97h-1.19v-1.49c0,0-0.67-0.92-5.19-0.92c0,0,0.21-0.57-0.29-1.13
		c-0.36-0.4-1.22-0.46-1.66-0.02c-0.52,0.52-0.35,1.07-0.35,1.07s-4.75,0.11-5.28,0.86v1.57H53l0.98,1.7l-1.01,1.91L56.16,65.51z"/>
	<polygon id="XMLID_161_" class="st7" points="53.82,64.9 54.07,64.67 53.92,64.38 54.23,64.49 54.46,64.2 54.54,64.53 54.89,64.53 
		54.66,64.8 54.76,65.12 54.39,65.04 54.19,65.26 54.17,64.94 	"/>
	<polygon id="XMLID_160_" class="st7" points="67.17,64.9 66.92,64.67 67.07,64.38 66.76,64.49 66.53,64.2 66.45,64.53 66.1,64.53 
		66.33,64.8 66.22,65.12 66.59,65.04 66.79,65.26 66.82,64.94 	"/>
	<path id="XMLID_154_" class="st7" d="M67.06,62.07c-0.02,0.03-0.41,0.69,0.02,1.07L67.2,63c-0.31-0.28,0.01-0.84,0.02-0.84
		L67.06,62.07z"/>
	<path id="XMLID_153_" class="st7" d="M53.91,62.07c0.02,0.03,0.4,0.69-0.02,1.07L53.77,63c0.31-0.28-0.01-0.84-0.02-0.84
		L53.91,62.07z"/>
	<path id="XMLID_152_" class="st7" d="M61.2,58.99c0,0.33-0.32,0.59-0.72,0.59c-0.4,0-0.72-0.27-0.72-0.59c0-0.33,0.32-0.6,0.72-0.6
		C60.88,58.39,61.2,58.66,61.2,58.99"/>
	<path id="XMLID_151_" class="st7" d="M55.95,61.99c0,0-0.2,0.15-0.11,0.47c0,0,0.85,0.26,1.47-0.33c0.62-0.59-0.18-0.96-0.31-1.01
		c-0.12-0.04-0.64-0.13-0.56-0.3c0.07-0.17,0.42-0.42,0.59-0.36c0,0,0.33-0.07,0.32-0.23c-0.01-0.17-0.25-0.38-0.32-0.4
		c-0.07-0.02-0.89,0.27-1.19,0.67c-0.3,0.4,0.02,0.64,0.18,0.7c0.17,0.06,0.84,0.14,0.8,0.52C56.78,62.09,56.09,62.07,55.95,61.99"
		/>
	<path id="XMLID_150_" class="st7" d="M58.52,60.4c0,0-0.24,0.78-0.24,1.21c0,0-0.5,0.28-0.46,0.46c0.04,0.18,0.34,0.21,0.65,0.1
		c0.31-0.11,0.61-0.18,0.64-0.35c0.03-0.18-0.11-0.26-0.36-0.29c0,0,0.05-0.69,0.22-1.18c0,0,0.03-0.1,0.31-0.16
		c0,0,0.33-0.19,0.12-0.48c0,0-0.23-0.12-0.78,0.05c-0.55,0.17-0.49,0.43-0.46,0.52C58.18,60.36,58.28,60.39,58.52,60.4"/>
	<path id="XMLID_149_" class="st7" d="M59.54,61.9c0,0,0.29-1.24,1.21-2.05c0,0,0.4-0.13,0.53,0.22c0,0,0.06,0.1,0.04,0.17
		c-0.02,0.07-0.11,0.6-0.11,0.6s0.65-0.96,0.9-1.04c0,0,0.33-0.12,0.56,0.13c0,0-0.52,1.75-0.58,2.11
		c-0.05,0.36-0.55,0.09-0.55-0.02c0-0.11,0.11-0.84,0.17-1.04c0,0-0.37,0.7-0.44,0.8c-0.07,0.1-0.3,0.35-0.49,0.27
		c-0.2-0.09-0.36-0.08-0.22-1.04c0,0-0.31,0.41-0.49,0.95C60.09,61.94,59.86,62.31,59.54,61.9"/>
	<path id="XMLID_148_" class="st7" d="M63.14,60.07c0,0,1.54,0,1.81,0.09c0.27,0.09,0.07,0.5-0.2,0.46c-0.27-0.03-0.75,0-0.75,0
		s-0.66,1.09-0.83,1.59c-0.1,0.29-0.52,0.08-0.47-0.09c0.05-0.17,0.25-0.74,0.79-1.46c0,0-0.28-0.02-0.43-0.06
		c-0.16-0.03-0.27-0.12-0.29-0.28C62.75,60.17,63.02,60.06,63.14,60.07"/>
	<g id="XMLID_132_" class="st3">
		<path class="st4" d="M60.24,66.45L60.24,66.45l-1.59-0.68l0-0.88l0,0l1.6,0.64l1.6-0.71v0.96L60.24,66.45z M58.65,64.89v0.88
			l1.59,0.68l1.6-0.67l0-0.95l-1.59,0.71L58.65,64.89z"/>
	</g>
	<g id="XMLID_131_" class="st3">
		<path class="st8" d="M60.24,65.53l-1.6-0.64v0.88l1.59,0.68l1.6-0.67v-0.95L60.24,65.53z M61.68,65.65l-1.45,0.6l-1.43-0.61V65.2
			l1.44,0.58l1.44-0.64V65.65z"/>
	</g>
	<path id="XMLID_128_" class="st9" d="M60.25,62.87L57.7,64l2.51,1.25L62.87,64L60.25,62.87z M58.02,64l2.23-0.99l2.3,0.99
		l-2.32,1.09L58.02,64z"/>
	<path id="XMLID_125_" class="st2" d="M60.25,62.87L57.7,64l2.51,1.25L62.87,64L60.25,62.87z M58.02,64l2.23-0.99l2.3,0.99
		l-2.32,1.09L58.02,64z"/>
	<path id="XMLID_122_" class="st2" d="M59.1,64.66h2.29v-1.23H59.1V64.66z M61.24,64.53h-2v-0.99h2V64.53z"/>
	<g id="XMLID_118_" class="st3">
		<path class="st4" d="M59.1,64.66L59.1,64.66l0-1.23l2.3,0l0,1.23L59.1,64.66z M59.1,64.65h2.29l0-1.23l-2.29,0L59.1,64.65z
			 M61.24,64.53h-2l0-0.99l2,0L61.24,64.53z M61.24,63.54l-2,0l0,0.99l2,0V63.54z"/>
	</g>
	<path id="XMLID_115_" class="st2" d="M60.22,63.44l-1.12,0.57l1.1,0.63l1.17-0.63L60.22,63.44z M59.37,64.02l0.86-0.44l0.89,0.44
		l-0.9,0.49L59.37,64.02z"/>
	<g id="XMLID_106_" class="st3">
		<path class="st5" d="M60.21,64.64l-1.11-0.63l0,0l1.12-0.57l0,0l1.16,0.57l0,0L60.21,64.64z M59.11,64.01l1.1,0.63l1.16-0.63
			l-1.15-0.57L59.11,64.01z M60.22,64.51l-0.85-0.49l0,0l0.86-0.44l0.89,0.44l0,0L60.22,64.51z M59.37,64.02l0.85,0.49l0.89-0.49
			l-0.88-0.44L59.37,64.02z"/>
	</g>
	<path id="XMLID_103_" class="st9" d="M60.24,63.54c-0.27,0-0.49,0.22-0.49,0.49c0,0.27,0.22,0.49,0.49,0.49
		c0.27,0,0.49-0.22,0.49-0.49C60.73,63.76,60.51,63.54,60.24,63.54 M60.24,64.43c-0.22,0-0.4-0.18-0.4-0.4c0-0.22,0.18-0.4,0.4-0.4
		c0.22,0,0.4,0.18,0.4,0.4C60.63,64.25,60.46,64.43,60.24,64.43"/>
	<path id="XMLID_98_" class="st2" d="M60.24,63.54c-0.27,0-0.49,0.22-0.49,0.49c0,0.27,0.22,0.49,0.49,0.49
		c0.27,0,0.49-0.22,0.49-0.49C60.73,63.76,60.51,63.54,60.24,63.54z M60.24,64.43c-0.22,0-0.4-0.18-0.4-0.4c0-0.22,0.18-0.4,0.4-0.4
		c0.22,0,0.4,0.18,0.4,0.4C60.63,64.25,60.46,64.43,60.24,64.43z"/>
	<path id="XMLID_97_" class="st6" d="M53.69,69.46c0.03-0.12,0.04-0.22,0.04-0.29c-0.01-0.08-0.03-0.13-0.07-0.17
		c-0.04-0.03-0.09-0.05-0.14-0.03c-0.06,0.01-0.11,0.04-0.15,0.1c-0.05,0.06-0.08,0.11-0.09,0.16c-0.01,0.05,0.01,0.13,0.06,0.23
		c0.06,0.14,0.08,0.27,0.06,0.38c-0.02,0.11-0.09,0.23-0.21,0.36c-0.15,0.17-0.31,0.27-0.47,0.32c-0.16,0.05-0.3,0.02-0.4-0.07
		c-0.06-0.05-0.1-0.11-0.13-0.19c-0.03-0.07-0.04-0.16-0.04-0.25l0.4-0.27c-0.01,0.08-0.01,0.14,0.01,0.19
		c0.01,0.05,0.04,0.1,0.07,0.13c0.04,0.03,0.08,0.04,0.12,0.03c0.05-0.01,0.09-0.03,0.13-0.08c0.04-0.05,0.06-0.09,0.07-0.13
		c0.01-0.04-0.01-0.1-0.04-0.17c0,0,0-0.01-0.01-0.02c-0.07-0.16-0.1-0.28-0.08-0.38c0.01-0.06,0.04-0.13,0.08-0.21
		c0.04-0.07,0.09-0.14,0.16-0.22c0.17-0.19,0.34-0.3,0.51-0.35c0.17-0.05,0.32-0.02,0.45,0.09c0.07,0.06,0.12,0.15,0.14,0.24
		c0.02,0.1,0.02,0.21,0,0.35L53.69,69.46z"/>
	<path id="XMLID_92_" class="st6" d="M51.86,68.92c-0.04,0.02-0.09,0.05-0.13,0.08c-0.04,0.03-0.09,0.06-0.14,0.09
		c0.05-0.06,0.1-0.11,0.13-0.16c0.03-0.04,0.06-0.07,0.07-0.09l0.49-0.62l0.25,0.29L51.86,68.92z M53.3,68.05l-0.37,0.22l-0.36-0.41
		l0.27-0.33l-0.25-0.29l-1.45,1.92l0.32,0.36l2.09-1.19L53.3,68.05z"/>
	<polygon id="XMLID_91_" class="st6" points="52.56,67.16 50.64,68.52 50.41,68.21 52.34,66.85 	"/>
	<path id="XMLID_90_" class="st6" d="M49.71,66.88l0.61-0.35c-0.06,0.09-0.09,0.18-0.11,0.24c-0.01,0.07-0.01,0.13,0.02,0.18
		c0.05,0.1,0.15,0.14,0.3,0.14c0.14,0,0.3-0.05,0.48-0.16c0.16-0.09,0.28-0.2,0.35-0.32c0.07-0.12,0.08-0.23,0.03-0.32
		c-0.03-0.05-0.08-0.09-0.14-0.11c-0.07-0.02-0.16-0.03-0.27-0.03l0.61-0.35c0.07,0.03,0.14,0.06,0.19,0.1
		c0.05,0.04,0.09,0.09,0.12,0.14c0.04,0.07,0.06,0.14,0.07,0.21c0.01,0.07,0,0.15-0.03,0.22c-0.05,0.15-0.14,0.29-0.27,0.43
		c-0.13,0.14-0.29,0.26-0.48,0.37c-0.16,0.09-0.3,0.16-0.45,0.2c-0.15,0.04-0.29,0.06-0.43,0.06c-0.13,0-0.25-0.02-0.34-0.07
		c-0.09-0.04-0.16-0.11-0.21-0.2c-0.03-0.05-0.05-0.11-0.06-0.18C49.7,67.03,49.7,66.96,49.71,66.88"/>
	
		<rect id="XMLID_89_" x="49.01" y="65.07" transform="matrix(0.9344 -0.3563 0.3563 0.9344 -19.9589 22.1664)" class="st6" width="2.35" height="0.39"/>
	<path id="XMLID_88_" class="st6" d="M51.12,64.43l-2.28,0.58l-0.09-0.36l1.04-0.81c0.02-0.01,0.06-0.04,0.13-0.08
		c0.07-0.04,0.15-0.09,0.24-0.14c-0.09,0.03-0.18,0.06-0.25,0.08c-0.07,0.02-0.14,0.04-0.2,0.05l-1.13,0.29l-0.09-0.36l2.28-0.58
		l0.09,0.36l-1.05,0.82c-0.02,0.02-0.06,0.04-0.13,0.09c-0.07,0.04-0.15,0.09-0.24,0.14c0.09-0.03,0.18-0.06,0.25-0.08
		c0.07-0.02,0.14-0.04,0.19-0.05l1.13-0.28L51.12,64.43z"/>
	<path id="XMLID_87_" class="st6" d="M49.99,62.9c0.1-0.07,0.17-0.13,0.22-0.2c0.05-0.06,0.07-0.12,0.06-0.17
		c0-0.05-0.03-0.09-0.08-0.12c-0.05-0.03-0.11-0.04-0.18-0.03c-0.08,0.01-0.14,0.03-0.17,0.06c-0.04,0.03-0.08,0.1-0.11,0.21
		c-0.05,0.14-0.12,0.25-0.21,0.32c-0.09,0.07-0.23,0.11-0.4,0.13c-0.22,0.03-0.41,0-0.56-0.07c-0.15-0.07-0.23-0.18-0.25-0.33
		c-0.01-0.08,0-0.15,0.03-0.23c0.03-0.07,0.07-0.14,0.14-0.21l0.47,0.07c-0.06,0.05-0.1,0.1-0.13,0.15
		c-0.03,0.05-0.04,0.1-0.03,0.14c0.01,0.05,0.03,0.08,0.07,0.11c0.04,0.02,0.09,0.03,0.15,0.03c0.06-0.01,0.1-0.02,0.14-0.05
		c0.03-0.03,0.06-0.08,0.08-0.16c0-0.01,0-0.01,0.01-0.02c0.05-0.16,0.12-0.27,0.2-0.33c0.05-0.04,0.12-0.07,0.2-0.1
		c0.08-0.03,0.17-0.05,0.26-0.06c0.25-0.03,0.45,0,0.61,0.08c0.16,0.08,0.25,0.2,0.27,0.37c0.01,0.1-0.01,0.19-0.06,0.27
		c-0.04,0.09-0.12,0.17-0.24,0.26L49.99,62.9z"/>
	<polygon id="XMLID_86_" class="st6" points="50.65,61.55 48.85,61.55 48.85,61.86 48.29,61.86 48.29,60.85 48.85,60.85 
		48.85,61.16 50.65,61.16 	"/>
	
		<rect id="XMLID_85_" x="49.32" y="59.18" transform="matrix(0.0892 -0.996 0.996 0.0892 -15.0213 104.2955)" class="st6" width="0.39" height="2.35"/>
	<polygon id="XMLID_84_" class="st6" points="50.78,59.77 49.01,59.45 48.95,59.76 48.4,59.65 48.58,58.66 49.13,58.76 49.07,59.07 
		50.84,59.39 	"/>
	<path id="XMLID_83_" class="st6" d="M48.68,58.26l0.12-0.37l1.09,0.35c0.16,0.05,0.28,0.09,0.35,0.1c0.07,0.02,0.13,0.03,0.18,0.03
		c0.06,0,0.11-0.01,0.15-0.03c0.04-0.03,0.07-0.06,0.09-0.11c0.02-0.05,0.01-0.1,0-0.14c-0.02-0.04-0.05-0.08-0.11-0.12
		c-0.04-0.03-0.1-0.05-0.17-0.08c-0.07-0.03-0.18-0.07-0.34-0.12l-0.15-0.05l-0.94-0.3l0.12-0.37l1.18,0.38
		c0.25,0.08,0.42,0.14,0.54,0.2c0.11,0.05,0.2,0.12,0.27,0.19c0.08,0.07,0.13,0.16,0.14,0.25c0.02,0.09,0.01,0.2-0.02,0.31
		c-0.04,0.12-0.09,0.21-0.16,0.27c-0.07,0.07-0.16,0.11-0.26,0.12c-0.1,0.01-0.21,0.01-0.33-0.01c-0.12-0.02-0.31-0.07-0.55-0.15
		l-0.23-0.07L48.68,58.26z"/>
	<polygon id="XMLID_82_" class="st6" points="51.48,57.4 49.85,56.64 49.72,56.92 49.22,56.69 49.64,55.77 50.15,56 50.02,56.29 
		51.65,57.05 	"/>
	<polygon id="XMLID_81_" class="st6" points="51.84,56.65 49.83,55.43 50.28,54.69 50.72,54.96 50.46,55.38 50.81,55.59 51.06,55.2 
		51.49,55.46 51.25,55.86 51.59,56.06 51.84,55.64 52.29,55.91 	"/>
	<path id="XMLID_78_" class="st6" d="M52.52,54.52c-0.14-0.04-0.29-0.12-0.44-0.26c-0.15-0.13-0.25-0.27-0.3-0.41
		c-0.05-0.14-0.04-0.25,0.03-0.33c0.07-0.08,0.18-0.1,0.32-0.06c0.14,0.04,0.29,0.12,0.44,0.26c0.15,0.13,0.25,0.27,0.3,0.41
		c0.05,0.14,0.04,0.25-0.03,0.33C52.77,54.53,52.66,54.55,52.52,54.52 M52.45,53.15c-0.14-0.07-0.27-0.12-0.4-0.15
		c-0.13-0.03-0.25-0.03-0.36,0c-0.11,0.03-0.2,0.08-0.27,0.15c-0.07,0.08-0.11,0.17-0.13,0.28c-0.02,0.11,0,0.23,0.03,0.36
		c0.04,0.13,0.1,0.26,0.18,0.39c0.08,0.13,0.19,0.25,0.31,0.36c0.12,0.11,0.25,0.21,0.39,0.28c0.13,0.07,0.27,0.12,0.41,0.15
		c0.13,0.03,0.25,0.03,0.36,0c0.11-0.03,0.2-0.08,0.26-0.15c0.07-0.07,0.11-0.17,0.12-0.28c0.02-0.11,0-0.23-0.03-0.36
		c-0.04-0.13-0.1-0.26-0.19-0.39c-0.08-0.13-0.19-0.25-0.31-0.36C52.71,53.31,52.58,53.22,52.45,53.15"/>
	<polygon id="XMLID_77_" class="st6" points="53.84,54.12 52.32,52.32 52.99,51.77 53.32,52.16 52.94,52.47 53.21,52.79 
		53.56,52.49 53.89,52.88 53.53,53.18 54.13,53.88 	"/>
	<path id="XMLID_76_" class="st6" d="M56.5,52.36l-0.32,0.17l-0.56-0.85c-0.04-0.06-0.08-0.13-0.13-0.2
		c-0.05-0.08-0.1-0.16-0.15-0.25c0.04,0.09,0.08,0.21,0.13,0.35c0.01,0.03,0.02,0.05,0.02,0.07l0.36,1.06l-0.23,0.12l-0.7-0.88
		c-0.01-0.01-0.02-0.03-0.04-0.05c-0.1-0.12-0.17-0.22-0.23-0.3c0.04,0.08,0.08,0.16,0.11,0.24c0.04,0.08,0.07,0.16,0.11,0.24
		l0.41,0.93l-0.31,0.17l-0.94-2.17l0.33-0.18l0.77,0.96c0,0.01,0.01,0.02,0.03,0.03c0.07,0.09,0.12,0.16,0.17,0.23
		c-0.02-0.04-0.04-0.08-0.05-0.13c-0.02-0.05-0.04-0.11-0.06-0.17l-0.39-1.17l0.34-0.18L56.5,52.36z"/>
	<path id="XMLID_73_" class="st6" d="M56.54,50.61c-0.01-0.05-0.02-0.1-0.03-0.15c-0.01-0.05-0.02-0.11-0.03-0.16
		c0.04,0.07,0.07,0.13,0.1,0.18c0.02,0.05,0.04,0.08,0.06,0.1l0.4,0.68l-0.36,0.13L56.54,50.61z M56.82,52.26l-0.07-0.42l0.52-0.18
		l0.21,0.37l0.36-0.13l-1.25-2.05l-0.46,0.16l0.33,2.38L56.82,52.26z"/>
	<path id="XMLID_72_" class="st6" d="M57.88,51.89l-0.45-2.31l0.36-0.07l0.76,1.09c0.01,0.02,0.04,0.07,0.08,0.14
		c0.04,0.07,0.08,0.15,0.13,0.25c-0.03-0.09-0.05-0.18-0.07-0.25c-0.02-0.07-0.03-0.14-0.04-0.2l-0.22-1.14l0.36-0.07l0.45,2.31
		l-0.36,0.07l-0.76-1.09c-0.02-0.02-0.04-0.07-0.08-0.14c-0.04-0.07-0.08-0.15-0.13-0.24c0.03,0.09,0.05,0.18,0.07,0.25
		c0.02,0.07,0.03,0.14,0.04,0.2l0.22,1.14L57.88,51.89z"/>
	<path id="XMLID_69_" class="st6" d="M59.89,49.94c0.01-0.05,0.01-0.1,0.02-0.15c0.01-0.05,0.01-0.11,0.02-0.17
		c0.02,0.08,0.03,0.15,0.04,0.2c0.01,0.05,0.02,0.09,0.02,0.11l0.18,0.77l-0.38,0.02L59.89,49.94z M59.66,51.6l0.06-0.42l0.55-0.02
		l0.09,0.41l0.38-0.02l-0.59-2.33l-0.48,0.02l-0.38,2.37L59.66,51.6z"/>
	<path id="XMLID_68_" class="st6" d="M61.51,50.77l0.05-0.49l0.75,0.08c0,0.02,0,0.03,0,0.05c0,0.02-0.01,0.05-0.01,0.08
		c-0.04,0.4-0.14,0.71-0.29,0.92c-0.15,0.21-0.34,0.3-0.57,0.28c-0.11-0.01-0.21-0.05-0.3-0.12c-0.08-0.07-0.15-0.16-0.21-0.29
		c-0.05-0.12-0.09-0.26-0.12-0.41c-0.02-0.16-0.02-0.32,0-0.48c0.02-0.18,0.05-0.34,0.1-0.48c0.05-0.14,0.12-0.27,0.2-0.38
		c0.08-0.11,0.17-0.19,0.27-0.24c0.1-0.05,0.2-0.07,0.3-0.06c0.14,0.01,0.25,0.07,0.35,0.17c0.1,0.1,0.17,0.25,0.22,0.43l-0.36,0.23
		c-0.03-0.1-0.07-0.17-0.11-0.21c-0.04-0.05-0.1-0.08-0.16-0.08c-0.12-0.01-0.21,0.04-0.29,0.16c-0.08,0.12-0.13,0.29-0.15,0.51
		c-0.02,0.22-0.01,0.4,0.05,0.54c0.05,0.13,0.14,0.21,0.25,0.22c0.1,0.01,0.18-0.02,0.25-0.1c0.07-0.07,0.12-0.17,0.15-0.3
		L61.51,50.77z"/>
	<polygon id="XMLID_67_" class="st6" points="62.33,51.75 62.88,49.47 63.72,49.67 63.6,50.17 63.12,50.05 63.03,50.46 63.48,50.56 
		63.36,51.05 62.91,50.94 62.82,51.33 63.29,51.44 63.17,51.96 	"/>
	<path id="XMLID_66_" class="st6" d="M64.85,52.59l-0.33-0.13l0.3-0.98c0.02-0.07,0.05-0.14,0.07-0.23
		c0.03-0.08,0.06-0.17,0.09-0.27c-0.04,0.09-0.11,0.2-0.19,0.32c-0.02,0.03-0.03,0.05-0.04,0.06l-0.59,0.95l-0.24-0.1l0.23-1.1
		c0-0.01,0.01-0.04,0.01-0.07c0.03-0.15,0.06-0.27,0.09-0.36c-0.04,0.08-0.07,0.16-0.11,0.24c-0.04,0.08-0.08,0.16-0.11,0.24
		l-0.46,0.92l-0.33-0.13l1.07-2.11l0.35,0.14l-0.25,1.21c0,0.01-0.01,0.02-0.01,0.04c-0.02,0.11-0.04,0.2-0.07,0.27
		c0.02-0.04,0.04-0.08,0.06-0.12c0.03-0.05,0.06-0.1,0.1-0.16l0.65-1.04l0.35,0.14L64.85,52.59z"/>
	<polygon id="XMLID_65_" class="st6" points="64.94,52.67 66.12,50.63 66.87,51.06 66.61,51.51 66.19,51.26 65.98,51.62 
		66.38,51.85 66.13,52.29 65.73,52.06 65.53,52.4 65.96,52.64 65.69,53.1 	"/>
	<path id="XMLID_64_" class="st6" d="M65.85,53.19l1.44-1.86l0.29,0.23l-0.31,1.29c-0.01,0.03-0.03,0.08-0.05,0.15
		c-0.03,0.07-0.06,0.16-0.1,0.26c0.05-0.08,0.1-0.15,0.15-0.22c0.04-0.06,0.08-0.12,0.12-0.16l0.71-0.92l0.29,0.23l-1.44,1.86
		l-0.29-0.23l0.32-1.29c0.01-0.03,0.02-0.08,0.05-0.15c0.03-0.07,0.06-0.16,0.1-0.26c-0.05,0.08-0.1,0.15-0.15,0.22
		c-0.04,0.06-0.08,0.12-0.12,0.16l-0.71,0.92L65.85,53.19z"/>
	<polygon id="XMLID_63_" class="st6" points="67.24,54.33 68.52,53.07 68.3,52.84 68.69,52.45 69.41,53.17 69.01,53.57 68.79,53.34 
		67.51,54.61 	"/>
	<path id="XMLID_59_" class="st6" d="M68.86,55.58c-0.04-0.01-0.07-0.03-0.09-0.06c-0.03-0.04-0.03-0.08,0-0.13
		c0.02-0.05,0.06-0.09,0.12-0.13c0.04-0.03,0.09-0.05,0.15-0.06c0.06-0.01,0.12-0.02,0.2-0.02l-0.22,0.42
		C68.96,55.6,68.9,55.59,68.86,55.58 M68.97,56.53l0.27-0.55c0.05,0,0.12,0,0.18,0c0.06,0,0.13-0.01,0.21-0.02l0.18-0.36
		c-0.07,0.01-0.14,0.01-0.21,0.02c-0.06,0-0.12,0-0.18,0l0.15-0.3c0.11,0.02,0.22,0.02,0.33,0c0.1-0.02,0.2-0.06,0.3-0.13
		c0.15-0.1,0.24-0.21,0.29-0.33c0.04-0.12,0.03-0.23-0.04-0.34c-0.06-0.09-0.16-0.14-0.29-0.14c-0.13,0-0.26,0.04-0.39,0.13
		c-0.07,0.04-0.12,0.1-0.18,0.16c-0.06,0.06-0.11,0.13-0.15,0.22c-0.15-0.04-0.28-0.05-0.4-0.03c-0.12,0.02-0.25,0.07-0.37,0.15
		c-0.16,0.11-0.27,0.23-0.33,0.36c-0.06,0.14-0.05,0.26,0.02,0.36c0.05,0.07,0.12,0.13,0.2,0.17c0.08,0.04,0.19,0.05,0.31,0.05
		l-0.13,0.24L68.97,56.53z M69.77,54.91c0.02-0.03,0.04-0.06,0.06-0.09c0.03-0.03,0.05-0.05,0.07-0.06c0.05-0.04,0.1-0.06,0.15-0.06
		c0.04,0,0.08,0.02,0.1,0.05c0.02,0.03,0.02,0.06,0.01,0.1c-0.02,0.04-0.05,0.07-0.1,0.1c-0.03,0.02-0.08,0.04-0.12,0.05
		c-0.05,0.01-0.1,0.01-0.15,0.01l-0.08,0L69.77,54.91z"/>
	<polygon id="XMLID_58_" class="st6" points="69.36,57.34 71.01,56.64 70.89,56.35 71.4,56.13 71.8,57.06 71.29,57.28 71.16,56.99 
		69.51,57.7 	"/>
	<polygon id="XMLID_57_" class="st6" points="69.67,58.11 71.93,57.42 72.18,58.25 71.69,58.4 71.54,57.93 71.15,58.05 71.28,58.49 
		70.8,58.64 70.66,58.2 70.29,58.31 70.43,58.78 69.92,58.93 	"/>
	<path id="XMLID_56_" class="st6" d="M72.38,59.71l-0.69,0.13c0.09-0.07,0.15-0.14,0.19-0.2c0.04-0.06,0.05-0.12,0.04-0.18
		c-0.02-0.11-0.1-0.19-0.23-0.23c-0.14-0.05-0.3-0.05-0.5-0.01c-0.18,0.03-0.33,0.1-0.44,0.19c-0.11,0.09-0.15,0.19-0.14,0.3
		c0.01,0.06,0.04,0.11,0.1,0.15c0.05,0.04,0.14,0.08,0.24,0.12l-0.69,0.13c-0.06-0.05-0.11-0.1-0.14-0.16
		c-0.03-0.05-0.06-0.11-0.07-0.17c-0.01-0.08-0.01-0.15,0.01-0.22c0.02-0.07,0.05-0.14,0.1-0.2c0.1-0.13,0.23-0.23,0.39-0.32
		c0.17-0.09,0.36-0.15,0.58-0.19c0.18-0.03,0.34-0.04,0.49-0.04c0.15,0.01,0.29,0.03,0.42,0.08c0.12,0.05,0.22,0.11,0.29,0.18
		c0.07,0.07,0.12,0.16,0.14,0.26c0.01,0.06,0.01,0.12,0,0.19C72.45,59.58,72.42,59.65,72.38,59.71"/>
	<polygon id="XMLID_55_" class="st6" points="70.18,60.26 72.53,60.15 72.55,60.54 71.63,60.58 71.65,61.09 72.57,61.05 
		72.59,61.44 70.24,61.54 70.22,61.16 71.17,61.11 71.15,60.6 70.19,60.64 	"/>
	<path id="XMLID_54_" class="st6" d="M70.23,61.75l2.34,0.26l-0.04,0.37l-1.26,0.4c-0.02,0.01-0.08,0.02-0.15,0.03
		c-0.08,0.02-0.17,0.03-0.27,0.05c0.1,0,0.19,0.01,0.26,0.01c0.08,0,0.14,0.01,0.2,0.02l1.15,0.13l-0.04,0.37l-2.34-0.26l0.04-0.37
		l1.27-0.4c0.03-0.01,0.08-0.02,0.15-0.03c0.08-0.02,0.17-0.03,0.27-0.05c-0.1,0-0.19-0.01-0.26-0.01c-0.08,0-0.14-0.01-0.2-0.02
		l-1.15-0.13L70.23,61.75z"/>
	<path id="XMLID_45_" class="st6" d="M70.58,63.92c0.14-0.03,0.31-0.02,0.51,0.04c0.19,0.05,0.34,0.13,0.45,0.23
		c0.11,0.1,0.15,0.2,0.12,0.31c-0.03,0.1-0.11,0.17-0.26,0.2c-0.15,0.03-0.31,0.02-0.51-0.03c-0.19-0.05-0.34-0.13-0.45-0.23
		c-0.11-0.1-0.15-0.2-0.12-0.31C70.35,64.02,70.43,63.96,70.58,63.92 M71.26,65.11c0.15,0,0.3-0.01,0.43-0.05
		c0.13-0.04,0.24-0.09,0.32-0.16c0.09-0.07,0.14-0.16,0.17-0.25c0.03-0.1,0.02-0.2-0.01-0.31c-0.04-0.11-0.1-0.21-0.19-0.31
		c-0.09-0.1-0.21-0.19-0.34-0.27c-0.13-0.07-0.28-0.14-0.44-0.18c-0.16-0.04-0.32-0.07-0.47-0.07c-0.15,0-0.3,0.01-0.43,0.05
		c-0.13,0.04-0.24,0.09-0.32,0.16c-0.09,0.07-0.14,0.16-0.17,0.26c-0.03,0.1-0.02,0.2,0.01,0.3c0.04,0.1,0.1,0.21,0.19,0.31
		c0.09,0.1,0.21,0.19,0.34,0.26c0.13,0.08,0.28,0.14,0.44,0.18C70.94,65.08,71.1,65.11,71.26,65.11"/>
	<polygon id="XMLID_44_" class="st6" points="69.57,64.87 71.73,65.8 71.58,66.15 69.92,65.44 69.73,65.88 69.23,65.66 	"/>
	<path id="XMLID_37_" class="st6" d="M69.57,66.45c0.15,0.01,0.31,0.06,0.48,0.17c0.17,0.1,0.3,0.21,0.37,0.34
		c0.08,0.13,0.09,0.23,0.03,0.33c-0.05,0.09-0.16,0.13-0.3,0.12c-0.15-0.01-0.31-0.06-0.48-0.16c-0.17-0.1-0.3-0.22-0.38-0.34
		c-0.08-0.13-0.09-0.23-0.03-0.32C69.32,66.49,69.42,66.45,69.57,66.45 M69.91,67.78c0.15,0.04,0.29,0.07,0.43,0.06
		c0.14,0,0.25-0.03,0.36-0.08c0.1-0.05,0.18-0.12,0.23-0.2c0.05-0.09,0.07-0.19,0.07-0.3c-0.01-0.11-0.04-0.23-0.11-0.34
		c-0.06-0.12-0.15-0.24-0.26-0.35c-0.11-0.11-0.23-0.2-0.38-0.29c-0.15-0.09-0.29-0.15-0.44-0.19c-0.15-0.04-0.29-0.06-0.43-0.06
		c-0.14,0-0.25,0.03-0.35,0.07c-0.1,0.05-0.18,0.11-0.23,0.2c-0.05,0.09-0.07,0.18-0.07,0.29c0.01,0.11,0.04,0.23,0.1,0.35
		c0.06,0.12,0.15,0.23,0.26,0.34c0.11,0.11,0.23,0.21,0.38,0.29C69.62,67.67,69.77,67.73,69.91,67.78"/>
	<path id="XMLID_24_" class="st6" d="M68.61,68.17l0.38,0.32l-0.49,0.58c-0.01-0.01-0.03-0.02-0.04-0.03
		c-0.02-0.01-0.04-0.03-0.07-0.06c-0.31-0.26-0.51-0.51-0.6-0.75c-0.09-0.24-0.06-0.45,0.09-0.63c0.07-0.09,0.16-0.15,0.26-0.18
		c0.1-0.03,0.22-0.04,0.36-0.01c0.13,0.02,0.26,0.07,0.4,0.14c0.14,0.07,0.28,0.16,0.41,0.27c0.14,0.11,0.25,0.23,0.34,0.35
		c0.09,0.12,0.16,0.25,0.2,0.38c0.04,0.13,0.06,0.25,0.04,0.35c-0.01,0.11-0.06,0.2-0.12,0.28c-0.09,0.11-0.2,0.17-0.34,0.19
		c-0.14,0.02-0.3,0-0.49-0.06l0.01-0.43c0.09,0.03,0.18,0.04,0.24,0.03c0.07-0.01,0.12-0.04,0.16-0.09c0.07-0.09,0.08-0.2,0.03-0.33
		c-0.06-0.13-0.17-0.27-0.34-0.41c-0.17-0.14-0.33-0.23-0.47-0.26c-0.14-0.03-0.25,0-0.32,0.09c-0.06,0.08-0.09,0.16-0.06,0.26
		c0.02,0.1,0.08,0.2,0.17,0.29L68.61,68.17z"/>
	<path id="XMLID_23_" class="st6" d="M67.17,68.44l0.73,0.79l1.23,0.61l-0.32,0.3l-0.55-0.32c0,0-0.01,0-0.02-0.01
		c-0.06-0.03-0.11-0.07-0.15-0.11c0.03,0.04,0.06,0.1,0.09,0.16c0,0.01,0.01,0.02,0.01,0.02l0.27,0.57l-0.33,0.3l-0.5-1.28
		l-0.72-0.79L67.17,68.44z"/>
</g>
<g id="XMLID_1_">
	<polygon id="XMLID_190_" class="st10" points="39.15,37.39 42.7,33.95 45.36,34.73 58.12,53.59 56.79,54.37 	"/>
	<polygon id="XMLID_189_" class="st10" points="57.58,34.07 61,52.47 65.23,34.51 61.46,32.62 	"/>
	<polygon id="XMLID_188_" class="st10" points="63.56,52.69 76.33,35.18 80.54,34.62 84.32,38.5 64.9,53.37 	"/>
	<polygon id="XMLID_187_" class="st10" points="66.01,55.25 81.98,47.37 81.43,50.37 81.43,54.24 66.01,57.68 	"/>
	<polygon id="XMLID_186_" class="st10" points="41.47,46.59 55.57,55.47 54.9,58.13 40.7,53.14 	"/>
	<path id="XMLID_183_" class="st8" d="M86.26,59.98c-7.18-10.76,2.61-21.08,2.61-21.08l-7.51-7.39
		c-12.72,4.24-19.78-1.84-19.78-1.84c-9.79,5.97-19.59,1.09-19.59,1.09l-7.17,7.06c8.48,12.06-0.44,21.51-0.44,21.51
		c-2.82,11.2-1.52,17.17-1.52,17.17c0.33,5.98,4.58,10.22,5.44,11.09c0.87,0.87,8.53,5.45,12.62,7.71c6.08,3.39,8.91,8.48,8.91,8.48
		c2.56-3.42,9.4-8.16,11.88-9.61c2.48-1.45,6.83-3.33,11.4-6.27c4.57-2.93,5.98-6.4,5.98-15.09C89.08,64.1,86.26,59.98,86.26,59.98
		 M82.41,87.24c-4.43,2.85-8.64,4.67-11.04,6.08c-2.41,1.41-9.02,5.99-11.51,9.31c0,0-2.74-4.94-8.64-8.22
		c-3.97-2.19-11.38-6.63-12.23-7.48c-0.84-0.84-4.95-4.95-5.27-10.74c0,0-1.26-5.79,1.47-16.63c0,0,9.18-9.7,0.96-21.38l6.43-6.31
		c0,0,9.48,4.74,18.97-1.05c0,0,6.85,5.9,19.18,1.79l6.77,6.64c0,0-8.99,10.52-2.03,20.94c0,0,2.74,4,2.74,12.43
		C88.21,81.03,86.84,84.4,82.41,87.24"/>
	<g id="XMLID_182_">
		<path class="st4" d="M59.82,103.78L59.82,103.78c-0.03-0.06-2.91-5.14-8.91-8.49c-4.14-2.29-11.75-6.85-12.62-7.71
			c-3.3-3.3-5.23-7.23-5.44-11.09c-0.01-0.06-1.27-6.1,1.52-17.17c0.02-0.02,1.05-1.13,2.08-3.05c-1.01,1.91-2.03,3.02-2.06,3.05
			c-2.79,11.06-1.53,17.1-1.52,17.16c0.21,3.85,2.14,7.79,5.44,11.08c0.87,0.86,8.48,5.42,12.62,7.71c5.88,3.27,8.75,8.2,8.91,8.48
			c2.68-3.57,9.74-8.35,11.87-9.6c0.89-0.52,2.01-1.09,3.31-1.75c2.3-1.17,5.16-2.63,8.09-4.52c4.58-2.93,5.98-6.46,5.98-15.08
			c0-8.6-2.8-12.78-2.83-12.82l0,0c-2.51-3.76-2.93-7.49-2.42-10.74c-0.48,3.14-0.11,6.91,2.44,10.73l0,0
			c0.03,0.04,2.83,4.22,2.83,12.83c0,8.63-1.4,12.16-5.99,15.1c-2.93,1.89-5.8,3.35-8.1,4.52c-1.3,0.66-2.42,1.23-3.3,1.75
			C69.57,95.42,62.5,100.21,59.82,103.78L59.82,103.78z M59.85,102.64L59.85,102.64c-0.03-0.06-2.81-4.99-8.64-8.22
			c-4.01-2.22-11.38-6.63-12.24-7.48c-3.19-3.18-5.07-7-5.27-10.74c-0.01-0.06-1.23-5.91,1.47-16.64c0.02-0.02,1.11-1.19,2.2-3.18
			c-1.08,1.99-2.16,3.16-2.19,3.19c-2.7,10.72-1.48,16.57-1.47,16.63c0.2,3.74,2.07,7.55,5.26,10.73c0.85,0.85,8.23,5.26,12.23,7.48
			c5.69,3.16,8.48,7.94,8.63,8.21c2.6-3.46,9.44-8.09,11.5-9.3c0.86-0.5,1.93-1.05,3.18-1.68c2.23-1.14,5.01-2.55,7.86-4.39l0,0
			c4.44-2.85,5.8-6.26,5.8-14.62c0-8.33-2.71-12.38-2.74-12.42c-2.5-3.75-2.93-7.53-2.45-10.82c-0.45,3.18-0.08,7,2.47,10.81
			c0.03,0.04,2.74,4.1,2.74,12.43c0,8.37-1.36,11.79-5.8,14.64l0,0c-2.85,1.84-5.63,3.25-7.87,4.39c-1.25,0.64-2.32,1.18-3.18,1.68
			C69.3,94.53,62.46,99.17,59.85,102.64L59.85,102.64z M39.52,49.23c0.2-3.15-0.51-6.98-3.38-11.06l6.43-6.32
			c0.03,0.01,2.42,1.19,5.93,1.65c3.24,0.41,8.14,0.29,13.04-2.7c0.03,0.01,1.46,1.23,4.15,2.17c-2.68-0.93-4.12-2.13-4.15-2.15
			c-9.37,5.73-18.87,1.1-18.97,1.05l-6.42,6.31C38.98,42.19,39.74,45.99,39.52,49.23z M38.44,49.06c0.12-3.16-0.68-7.04-3.63-11.24
			l7.17-7.07c0.03,0.01,2.33,1.14,5.75,1.64c-3.42-0.5-5.7-1.6-5.75-1.63l-7.16,7.06C37.73,41.95,38.58,45.8,38.44,49.06z
			 M85.04,43.1c1.19-2.36,2.42-3.83,2.45-3.87l-6.77-6.63c-5.49,1.83-9.92,1.66-13.12,0.91c3.01,0.7,7.48,0.95,13.13-0.93l6.78,6.65
			C87.49,39.26,86.24,40.74,85.04,43.1z M86.3,42.48c1.27-2.2,2.52-3.55,2.56-3.59l-7.51-7.38c-5.52,1.84-9.99,1.72-13.28,1
			c3.1,0.67,7.62,0.87,13.28-1.02l7.52,7.39C88.86,38.92,87.59,40.28,86.3,42.48z M50.98,32.62c-0.63,0-1.25-0.03-1.84-0.08
			c0.56,0.04,1.16,0.07,1.78,0.07c3.07,0,6.86-0.65,10.65-2.96c0.02,0.01,1.41,1.19,3.99,2.13c-2.59-0.94-3.96-2.09-3.99-2.12
			C57.88,31.92,54.16,32.62,50.98,32.62z"/>
	</g>
	<path id="XMLID_175_" class="st8" d="M84.56,60.49c-6.61-9.91,1.37-21.25,1.37-21.25l-5.29-5.38c-11.86,3.13-19.31-1.96-19.31-1.96
		c-9.88,5.17-18.81,1.27-18.81,1.27l-4.81,5c7.81,11.09-1.24,21.75-1.24,21.75c-2.6,10.31-1.5,15.25-1.5,15.25
		c0.3,5.51,4.11,8.8,4.9,9.6c0.8,0.81,7.9,4.68,11.67,6.75c5.6,3.12,8.37,7.14,8.37,7.14c3.58-3.02,8.65-5.76,10.93-7.11
		c2.29-1.34,5.79-3.35,10-6.69c3.72-2.94,5.58-7.42,5.58-12.72C86.41,64.13,84.56,60.49,84.56,60.49 M80.11,84.17
		c-3.99,3.2-7.56,4.96-9.73,6.23c-2.17,1.29-6.95,3.88-10.34,6.76c0,0-3.2-3.86-8.52-6.85c-3.57-1.99-10.35-5.84-11.11-6.61
		c-0.76-0.77-4.2-4.02-4.48-9.27c0,0-0.71-4.68,1.76-14.54c0,0,8.81-10.81,1.4-21.43l3.89-4.15c0,0,8.94,3.72,18.33-1.23
		c0,0,7.76,4.9,19.02,1.9l4.41,4.48c0,0-7.66,11.49-1.38,20.97c0,0,2.01,3.6,2.01,11.25C85.37,76.78,83.64,81.35,80.11,84.17"/>
	<g id="XMLID_170_">
		<path class="st5" d="M59.91,98.67L59.91,98.67c-0.03-0.05-2.84-4.06-8.37-7.14l-0.74-0.41c-3.81-2.09-10.18-5.59-10.93-6.35
			c-0.06-0.06-0.13-0.13-0.22-0.21c-1.09-1.06-4.41-4.27-4.69-9.39c-0.01-0.05-1.07-5.06,1.5-15.25c0.02-0.02,1.18-1.41,2.31-3.67
			c-1.12,2.26-2.26,3.64-2.3,3.68c-2.57,10.19-1.51,15.2-1.5,15.24c0.28,5.11,3.59,8.33,4.68,9.38c0.09,0.08,0.16,0.15,0.22,0.21
			c0.75,0.75,7.12,4.25,10.93,6.34l0.74,0.41c5.42,3.02,8.22,6.93,8.36,7.13c3.03-2.55,7.19-4.95,9.68-6.38
			c0.47-0.27,0.89-0.51,1.24-0.72l0.29-0.17c2.26-1.32,5.67-3.31,9.7-6.52c3.65-2.89,5.58-7.28,5.58-12.71
			c0-7.89-1.82-11.59-1.85-11.65c-2.49-3.73-2.89-7.68-2.44-11.15c-0.43,3.33-0.08,7.35,2.46,11.14l0,0
			c0.02,0.04,1.86,3.74,1.86,11.66c0,5.43-1.93,9.83-5.59,12.73c-4.04,3.2-7.45,5.2-9.71,6.52l-0.29,0.17
			c-0.35,0.21-0.77,0.45-1.24,0.72C67.11,93.71,62.94,96.11,59.91,98.67L59.91,98.67z M60.04,97.18c-0.04-0.04-3.27-3.9-8.53-6.85
			c-3.51-1.95-10.35-5.84-11.11-6.61l-0.11-0.11c-2.73-2.74-4.2-5.83-4.38-9.17c-0.01-0.05-0.68-4.79,1.76-14.54
			c0.02-0.02,1.23-1.52,2.37-3.91c-1.13,2.39-2.32,3.88-2.35,3.92c-2.44,9.74-1.76,14.49-1.75,14.53c0.18,3.34,1.65,6.42,4.37,9.16
			l0.11,0.11c0.76,0.76,7.6,4.65,11.11,6.6c5.26,2.95,8.49,6.81,8.53,6.85c2.87-2.45,6.83-4.74,9.19-6.1
			c0.43-0.25,0.82-0.47,1.14-0.67c0.44-0.26,0.95-0.55,1.49-0.85c2.13-1.2,5.06-2.84,8.24-5.38l0,0.01l0-0.01
			c3.39-2.71,5.26-7.13,5.26-12.46c0-7.56-1.99-11.21-2.01-11.24c-2.44-3.68-2.76-7.68-2.25-11.2c-0.48,3.36-0.22,7.43,2.27,11.19
			c0.02,0.04,2.01,3.68,2.01,11.25c0,5.33-1.87,9.76-5.26,12.47c-3.18,2.54-6.1,4.18-8.24,5.38c-0.54,0.3-1.05,0.59-1.49,0.85
			c-0.33,0.19-0.71,0.42-1.15,0.67C66.87,92.44,62.92,94.72,60.04,97.18z M41.93,49.46c0.34-3.24-0.17-7.12-2.86-10.97l3.9-4.16
			c0.03,0.01,2.28,0.93,5.65,1.24c3.11,0.29,7.83,0.09,12.68-2.47c0.03,0.01,1.99,1.23,5.29,2.07c3.06,0.78,7.92,1.37,13.73-0.17
			l4.42,4.49c-0.01,0.03-1.32,2.01-2.4,4.95c1.07-2.94,2.36-4.91,2.39-4.95l-4.41-4.47c-2.62,0.7-5.05,0.97-7.24,0.97
			c-7.13,0-11.72-2.83-11.78-2.86c-9.28,4.89-18.24,1.26-18.33,1.23l-3.88,4.14C41.73,42.27,42.29,46.1,41.93,49.46z M40.81,49.25
			c0.28-3.24-0.32-7.13-3.1-11.08l4.81-5.01c0.03,0.01,2.28,0.98,5.71,1.3c3.17,0.3,8,0.1,13.1-2.57c0.03,0.01,1.91,1.28,5.21,2.15
			c3.05,0.8,7.97,1.42,14.1-0.2l5.3,5.38c-0.02,0.03-1.27,1.83-2.36,4.58c1.09-2.75,2.32-4.53,2.35-4.58l-5.29-5.37
			c-11.72,3.11-19.23-1.9-19.31-1.95c-9.76,5.11-18.72,1.31-18.81,1.27l-4.8,5C40.46,42.05,41.11,45.9,40.81,49.25z"/>
	</g>
	<path id="XMLID_169_" class="st11" d="M39.51,87.32c0,0-4.59-3.65-5.43-10.77c0,0,8.99-4.4,26.62-4.4
		c17.63,0,27.39,4.77,27.39,4.77s0.56,6.83-5.9,10.78H96.8l-4.77-9.28l5.52-8.45h-5.81v-7.31c0,0-3.28-4.49-25.41-4.49
		c0,0,1.03-2.81-1.41-5.53c-1.76-1.97-6-2.24-8.14-0.09c-2.53,2.53-1.69,5.25-1.69,5.25s-23.26,0.56-25.88,4.21v7.69h-5.16
		l4.79,8.33l-4.97,9.37L39.51,87.32z"/>
	<polygon id="XMLID_168_" class="st5" points="28.07,84.34 29.28,83.2 28.54,81.77 30.08,82.33 31.18,80.91 31.59,82.53 33.3,82.53 
		32.19,83.83 32.69,85.44 30.88,85.04 29.91,86.1 29.78,84.53 	"/>
	<polygon id="XMLID_167_" class="st5" points="93.44,84.34 92.24,83.2 92.97,81.77 91.44,82.33 90.33,80.91 89.92,82.53 
		88.21,82.53 89.33,83.83 88.81,85.44 90.63,85.04 91.61,86.1 91.74,84.53 	"/>
	<path id="XMLID_166_" class="st5" d="M92.93,70.47c-0.09,0.14-1.99,3.36,0.07,5.26l0.62-0.67c-1.51-1.38,0.07-4.09,0.08-4.12
		L92.93,70.47z"/>
	<path id="XMLID_165_" class="st5" d="M28.52,70.47c0.09,0.14,1.98,3.36-0.08,5.26l-0.61-0.67c1.51-1.38-0.07-4.09-0.09-4.12
		L28.52,70.47z"/>
	<path id="XMLID_164_" class="st5" d="M64.22,55.37c0,1.61-1.58,2.91-3.53,2.91c-1.95,0-3.53-1.3-3.53-2.91
		c0-1.62,1.58-2.92,3.53-2.92C62.64,52.45,64.22,53.75,64.22,55.37"/>
	<path id="XMLID_159_" class="st5" d="M38.48,70.07c0,0-0.96,0.76-0.55,2.28c0,0,4.17,1.25,7.2-1.63c3.02-2.88-0.9-4.72-1.51-4.94
		c-0.6-0.22-3.12-0.66-2.77-1.47c0.35-0.81,2.06-2.06,2.91-1.78c0,0,1.62-0.33,1.57-1.15c-0.05-0.81-1.21-1.85-1.57-1.96
		c-0.35-0.11-4.38,1.31-5.83,3.26c-1.47,1.96,0.09,3.15,0.9,3.42c0.81,0.28,4.13,0.66,3.93,2.56C42.56,70.56,39.19,70.5,38.48,70.07
		"/>
	<path id="XMLID_158_" class="st5" d="M51.08,62.3c0,0-1.16,3.8-1.16,5.93c0,0-2.47,1.36-2.27,2.23c0.2,0.87,1.67,1.03,3.17,0.48
		c1.52-0.54,2.97-0.86,3.12-1.73c0.16-0.87-0.55-1.25-1.76-1.42c0,0,0.25-3.37,1.06-5.76c0,0,0.14-0.48,1.5-0.8
		c0,0,1.61-0.93,0.61-2.35c0,0-1.11-0.59-3.83,0.22c-2.71,0.82-2.41,2.12-2.26,2.56C49.41,62.08,49.91,62.25,51.08,62.3"/>
	<path id="XMLID_157_" class="st5" d="M56.11,69.63c0,0,1.41-6.08,5.94-10.05c0,0,1.96-0.65,2.62,1.09c0,0,0.3,0.49,0.2,0.82
		c-0.1,0.32-0.55,2.93-0.55,2.93s3.17-4.73,4.43-5.11c0,0,1.61-0.6,2.76,0.65c0,0-2.56,8.58-2.82,10.32
		c-0.24,1.74-2.71,0.43-2.71-0.11c0-0.55,0.55-4.13,0.86-5.1c0,0-1.81,3.42-2.16,3.91c-0.36,0.49-1.46,1.73-2.42,1.3
		c-0.96-0.44-1.76-0.38-1.06-5.1c0,0-1.51,2.01-2.41,4.67C58.78,69.85,57.67,71.64,56.11,69.63"/>
	<path id="XMLID_156_" class="st5" d="M73.74,60.67c0,0,7.55,0,8.86,0.43c1.31,0.44,0.35,2.45-0.96,2.28c-1.31-0.16-3.68,0-3.68,0
		s-3.22,5.33-4.08,7.79c-0.5,1.44-2.57,0.37-2.32-0.45c0.26-0.81,1.21-3.63,3.88-7.16c0,0-1.37-0.12-2.11-0.27
		c-0.76-0.17-1.32-0.6-1.41-1.36C71.82,61.16,73.14,60.62,73.74,60.67"/>
	<g id="XMLID_155_">
		<path class="st4" d="M59.5,91.92L59.5,91.92l-7.8-3.32l0-4.33l0.01,0l7.83,3.15l7.82-3.47v4.69L59.5,91.92z M51.72,84.3v4.3
			l7.78,3.31l7.85-3.26l0-4.66l-7.8,3.46L51.72,84.3z"/>
	</g>
	<g id="XMLID_147_">
		<path class="st8" d="M59.54,87.43l-7.83-3.15v4.31l7.79,3.32l7.85-3.26v-4.68L59.54,87.43z M66.59,88l-7.09,2.95l-7.03-2.99V85.8
			l7.07,2.84l7.05-3.12V88z"/>
	</g>
	<path id="XMLID_144_" class="st4" d="M59.56,74.4L47.1,79.92l12.31,6.1l12.98-6.1L59.56,74.4z M48.67,79.95l10.91-4.83l11.25,4.83
		L59.46,85.3L48.67,79.95z"/>
	<path id="XMLID_141_" class="st8" d="M59.56,74.4L47.1,79.92l12.31,6.1l12.98-6.1L59.56,74.4z M48.67,79.95l10.91-4.83l11.25,4.83
		L59.46,85.3L48.67,79.95z"/>
	<path id="XMLID_138_" class="st8" d="M53.93,83.14h11.24v-6.02H53.93V83.14z M64.43,82.53h-9.8v-4.84h9.8V82.53z"/>
	<g id="XMLID_137_">
		<path class="st4" d="M53.93,83.15L53.93,83.15l-0.01-6.03l11.24-0.01l0.01,6.03L53.93,83.15z M53.94,83.13h11.23l-0.01-6.01
			l-11.23,0.01L53.94,83.13z M64.43,82.54h-9.81l-0.01-4.85l9.81-0.01L64.43,82.54z M64.42,77.69l-9.79,0.01l0.01,4.84l9.78-0.01
			V77.69z"/>
	</g>
	<path id="XMLID_134_" class="st8" d="M59.44,77.19l-5.47,2.79l5.4,3.1l5.71-3.1L59.44,77.19z M55.25,80.01l4.21-2.14l4.34,2.14
		l-4.39,2.39L55.25,80.01z"/>
	<g id="XMLID_133_">
		<path class="st5" d="M59.37,83.08l-5.43-3.11l0.01-0.01l5.48-2.79l0,0l5.66,2.8l-0.01,0.01L59.37,83.08z M53.99,79.97l5.39,3.09
			l5.69-3.09l-5.63-2.78L53.99,79.97z M59.41,82.41l-4.18-2.4L55.24,80l4.21-2.14l4.36,2.15l-0.01,0.01L59.41,82.41z M55.26,80.01
			l4.14,2.39l4.37-2.39l-4.33-2.13L55.26,80.01z"/>
	</g>
	<path id="XMLID_119_" class="st4" d="M59.5,77.69c-1.32,0-2.4,1.07-2.4,2.4c0,1.32,1.09,2.4,2.4,2.4c1.32,0,2.4-1.07,2.4-2.4
		C61.9,78.76,60.83,77.69,59.5,77.69 M59.5,82.03c-1.07,0-1.94-0.87-1.94-1.94c0-1.06,0.87-1.94,1.94-1.94
		c1.08,0,1.95,0.88,1.95,1.94C61.45,81.16,60.58,82.03,59.5,82.03"/>
	<path id="XMLID_112_" class="st8" d="M59.5,77.69c-1.32,0-2.4,1.07-2.4,2.4c0,1.32,1.09,2.4,2.4,2.4c1.32,0,2.4-1.07,2.4-2.4
		C61.9,78.76,60.83,77.69,59.5,77.69z M59.5,82.03c-1.07,0-1.94-0.87-1.94-1.94c0-1.06,0.87-1.94,1.94-1.94
		c1.08,0,1.95,0.88,1.95,1.94C61.45,81.16,60.58,82.03,59.5,82.03z"/>
	<path id="XMLID_111_" class="st11" d="M27.43,106.69c0.14-0.58,0.2-1.06,0.17-1.43c-0.03-0.37-0.15-0.66-0.35-0.84
		c-0.19-0.17-0.42-0.23-0.69-0.16c-0.27,0.06-0.52,0.22-0.76,0.47c-0.25,0.3-0.4,0.56-0.43,0.81c-0.03,0.25,0.06,0.62,0.28,1.11
		c0.31,0.68,0.4,1.3,0.28,1.85c-0.11,0.55-0.45,1.14-1.02,1.78c-0.74,0.82-1.5,1.34-2.3,1.56c-0.79,0.23-1.45,0.1-1.98-0.36
		c-0.29-0.26-0.5-0.56-0.64-0.92c-0.14-0.35-0.21-0.76-0.21-1.21l1.95-1.3c-0.04,0.38-0.03,0.69,0.03,0.95
		c0.06,0.26,0.17,0.47,0.33,0.62c0.18,0.16,0.38,0.2,0.61,0.17c0.22-0.04,0.43-0.17,0.62-0.37c0.2-0.22,0.3-0.43,0.32-0.64
		c0.03-0.21-0.05-0.5-0.21-0.85c-0.01-0.02-0.02-0.05-0.03-0.08c-0.34-0.77-0.47-1.39-0.37-1.86c0.06-0.32,0.2-0.65,0.4-1.01
		c0.2-0.35,0.46-0.71,0.78-1.06c0.81-0.91,1.65-1.49,2.51-1.72c0.85-0.24,1.58-0.09,2.18,0.44c0.36,0.32,0.6,0.72,0.71,1.18
		c0.11,0.47,0.11,1.05-0.01,1.72L27.43,106.69z"/>
	<path id="XMLID_108_" class="st11" d="M18.45,104.03c-0.21,0.12-0.42,0.25-0.64,0.39c-0.21,0.14-0.45,0.29-0.68,0.45
		c0.27-0.31,0.48-0.56,0.65-0.76c0.17-0.2,0.29-0.35,0.36-0.44l2.4-3.03l1.23,1.41L18.45,104.03z M25.52,99.78l-1.79,1.08
		l-1.76-2.02l1.31-1.61l-1.24-1.41l-7.1,9.38l1.57,1.79l10.24-5.81L25.52,99.78z"/>
	<polygon id="XMLID_107_" class="st11" points="21.9,95.42 12.49,102.09 11.39,100.54 20.8,93.87 	"/>
	<path id="XMLID_101_" class="st11" d="M7.95,94.03l2.98-1.71c-0.28,0.46-0.45,0.86-0.53,1.19c-0.07,0.33-0.03,0.63,0.12,0.88
		c0.27,0.47,0.76,0.69,1.46,0.67c0.7-0.02,1.49-0.27,2.35-0.77c0.8-0.46,1.37-0.99,1.73-1.59c0.36-0.6,0.41-1.13,0.14-1.58
		c-0.15-0.26-0.38-0.44-0.7-0.55c-0.32-0.11-0.76-0.16-1.31-0.14l2.99-1.72c0.36,0.14,0.66,0.31,0.91,0.5
		c0.26,0.2,0.46,0.43,0.61,0.69c0.19,0.32,0.3,0.67,0.33,1.02c0.03,0.34-0.02,0.72-0.15,1.1c-0.24,0.73-0.68,1.44-1.3,2.12
		c-0.62,0.67-1.42,1.27-2.37,1.82c-0.76,0.44-1.49,0.77-2.2,0.98c-0.72,0.21-1.41,0.31-2.1,0.31c-0.65-0.01-1.2-0.12-1.64-0.34
		c-0.45-0.21-0.8-0.54-1.05-0.98c-0.15-0.26-0.25-0.55-0.3-0.87C7.88,94.76,7.88,94.41,7.95,94.03"/>
	
		<rect id="XMLID_100_" x="4.52" y="85.15" transform="matrix(0.9344 -0.3563 0.3563 0.9344 -30.0038 9.3168)" class="st11" width="11.53" height="1.9"/>
	<path id="XMLID_96_" class="st11" d="M14.83,82.05L3.65,84.87l-0.44-1.77l5.11-3.99c0.11-0.07,0.32-0.22,0.64-0.41
		c0.33-0.21,0.72-0.44,1.17-0.7c-0.45,0.16-0.86,0.29-1.21,0.4c-0.36,0.11-0.68,0.2-0.96,0.27l-5.52,1.4l-0.44-1.76l11.18-2.83
		l0.44,1.76l-5.13,4.01c-0.1,0.08-0.32,0.22-0.64,0.42c-0.33,0.2-0.71,0.43-1.16,0.68c0.46-0.15,0.87-0.28,1.23-0.4
		c0.35-0.1,0.67-0.2,0.95-0.27l5.53-1.39L14.83,82.05z"/>
	<path id="XMLID_94_" class="st11" d="M9.33,74.54c0.49-0.34,0.85-0.66,1.09-0.96c0.23-0.29,0.33-0.59,0.29-0.86
		c-0.02-0.25-0.16-0.45-0.4-0.58c-0.24-0.14-0.54-0.18-0.88-0.15c-0.38,0.05-0.67,0.15-0.86,0.31c-0.19,0.16-0.37,0.5-0.54,1.01
		c-0.22,0.71-0.57,1.23-1.02,1.57c-0.45,0.33-1.1,0.55-1.95,0.65c-1.1,0.12-2.01,0-2.75-0.36c-0.75-0.36-1.15-0.89-1.23-1.6
		c-0.04-0.38,0-0.75,0.13-1.11c0.14-0.35,0.35-0.71,0.67-1.04l2.31,0.33C3.92,72,3.71,72.24,3.58,72.48
		c-0.13,0.23-0.18,0.47-0.16,0.68c0.03,0.23,0.14,0.4,0.33,0.52c0.2,0.12,0.44,0.17,0.72,0.13c0.29-0.03,0.51-0.12,0.67-0.27
		c0.16-0.14,0.3-0.4,0.41-0.76c0.01-0.02,0.01-0.06,0.03-0.09c0.26-0.81,0.58-1.35,0.97-1.64c0.25-0.19,0.59-0.36,0.97-0.48
		c0.38-0.13,0.81-0.22,1.3-0.27c1.22-0.14,2.21-0.01,3.01,0.39c0.8,0.4,1.23,1,1.33,1.8c0.05,0.48-0.04,0.93-0.27,1.35
		c-0.22,0.43-0.61,0.85-1.15,1.28L9.33,74.54z"/>
	<polygon id="XMLID_53_" class="st11" points="12.54,67.91 3.73,67.91 3.73,69.46 1,69.46 1,64.49 3.73,64.49 3.73,66.03 
		12.54,66.03 	"/>
	<polygon id="XMLID_52_" class="st11" points="12.64,63.57 1.16,62.54 1.33,60.64 12.82,61.68 	"/>
	<polygon id="XMLID_51_" class="st11" points="13.16,59.21 4.49,57.62 4.21,59.14 1.53,58.65 2.43,53.76 5.11,54.25 4.83,55.76 
		13.49,57.36 	"/>
	<path id="XMLID_50_" class="st11" d="M2.88,51.81l0.57-1.8l5.33,1.71c0.78,0.24,1.35,0.42,1.7,0.51c0.36,0.08,0.65,0.13,0.9,0.15
		c0.31,0.01,0.56-0.04,0.76-0.16c0.21-0.13,0.34-0.3,0.42-0.55c0.08-0.25,0.07-0.48-0.02-0.69c-0.1-0.22-0.27-0.4-0.53-0.57
		c-0.21-0.13-0.48-0.26-0.81-0.39c-0.34-0.14-0.9-0.33-1.69-0.58l-0.75-0.23l-4.58-1.46l0.57-1.79l5.8,1.85
		c1.21,0.39,2.08,0.71,2.64,0.98c0.54,0.27,0.98,0.57,1.31,0.91c0.38,0.36,0.62,0.78,0.71,1.24c0.1,0.46,0.06,0.97-0.12,1.53
		c-0.18,0.57-0.45,1.01-0.8,1.33c-0.34,0.32-0.78,0.52-1.29,0.61c-0.48,0.07-1.02,0.06-1.62-0.03c-0.61-0.1-1.51-0.34-2.71-0.72
		l-1.14-0.37L2.88,51.81z"/>
	<polygon id="XMLID_49_" class="st11" points="16.63,47.59 8.63,43.87 7.98,45.26 5.52,44.11 7.62,39.61 10.09,40.75 9.43,42.16 
		17.42,45.88 	"/>
	<polygon id="XMLID_46_" class="st11" points="18.39,43.94 8.53,37.97 10.71,34.35 12.87,35.66 11.63,37.71 13.35,38.76 
		14.53,36.82 16.65,38.1 15.47,40.04 17.13,41.03 18.37,38.98 20.58,40.32 	"/>
	<path id="XMLID_40_" class="st11" d="M21.7,33.47c-0.7-0.18-1.41-0.6-2.14-1.26c-0.72-0.66-1.21-1.33-1.46-2.01
		c-0.25-0.68-0.19-1.22,0.15-1.6c0.34-0.38,0.88-0.47,1.58-0.29c0.71,0.18,1.42,0.6,2.14,1.25c0.72,0.66,1.21,1.33,1.45,2.01
		c0.26,0.69,0.19,1.22-0.16,1.6C22.92,33.56,22.4,33.66,21.7,33.47 M21.35,26.79c-0.67-0.36-1.32-0.61-1.98-0.73
		c-0.65-0.12-1.24-0.12-1.78,0c-0.54,0.13-0.97,0.38-1.3,0.74c-0.33,0.37-0.54,0.83-0.62,1.36c-0.08,0.54-0.02,1.13,0.16,1.76
		c0.19,0.65,0.49,1.29,0.9,1.91c0.41,0.62,0.93,1.21,1.53,1.77c0.61,0.55,1.24,1,1.91,1.36c0.66,0.36,1.32,0.6,1.99,0.72
		c0.64,0.13,1.24,0.13,1.77,0c0.53-0.13,0.96-0.37,1.3-0.74c0.33-0.37,0.54-0.81,0.61-1.35c0.08-0.54,0.02-1.13-0.15-1.77
		c-0.19-0.64-0.49-1.28-0.91-1.9c-0.41-0.62-0.92-1.21-1.54-1.78C22.65,27.59,22.01,27.14,21.35,26.79"/>
	<polygon id="XMLID_38_" class="st11" points="28.17,31.54 20.74,22.73 23.99,20 25.61,21.93 23.77,23.48 25.07,25.02 26.81,23.56 
		28.4,25.45 26.66,26.91 29.58,30.37 	"/>
	<path id="XMLID_36_" class="st11" d="M41.2,22.92l-1.55,0.84l-2.75-4.17c-0.19-0.3-0.41-0.62-0.63-0.99
		c-0.23-0.38-0.47-0.77-0.74-1.21c0.2,0.45,0.42,1.03,0.65,1.73c0.05,0.14,0.09,0.26,0.11,0.33l1.76,5.19l-1.11,0.6l-3.41-4.29
		c-0.05-0.06-0.12-0.14-0.21-0.27c-0.47-0.58-0.84-1.07-1.1-1.47c0.2,0.39,0.38,0.78,0.56,1.17c0.19,0.39,0.36,0.78,0.54,1.16
		l2.03,4.57l-1.54,0.83l-4.59-10.62l1.64-0.9l3.77,4.71c0.02,0.04,0.07,0.09,0.13,0.16c0.33,0.42,0.61,0.79,0.81,1.11
		c-0.09-0.18-0.18-0.4-0.27-0.63c-0.1-0.24-0.19-0.51-0.31-0.86l-1.92-5.71l1.65-0.89L41.2,22.92z"/>
	<path id="XMLID_33_" class="st11" d="M41.39,14.32c-0.04-0.24-0.08-0.48-0.13-0.74c-0.05-0.26-0.1-0.52-0.16-0.8
		c0.19,0.36,0.35,0.65,0.47,0.88c0.12,0.23,0.22,0.4,0.27,0.5l1.95,3.34l-1.77,0.64L41.39,14.32z M42.74,22.44l-0.35-2.05l2.53-0.9
		l1.01,1.81l1.76-0.63l-6.12-10.05l-2.23,0.79l1.64,11.65L42.74,22.44z"/>
	<path id="XMLID_32_" class="st11" d="M47.93,20.62l-2.2-11.31l1.79-0.35l3.7,5.32c0.07,0.11,0.2,0.32,0.38,0.67
		c0.18,0.33,0.39,0.73,0.63,1.2c-0.13-0.46-0.25-0.87-0.33-1.24c-0.08-0.36-0.16-0.68-0.21-0.96L50.6,8.37l1.79-0.35l2.19,11.31
		l-1.77,0.35l-3.71-5.34c-0.07-0.11-0.2-0.33-0.39-0.67c-0.18-0.33-0.39-0.74-0.62-1.19c0.13,0.46,0.24,0.88,0.32,1.24
		c0.09,0.35,0.16,0.69,0.22,0.96l1.09,5.59L47.93,20.62z"/>
	<path id="XMLID_29_" class="st11" d="M57.79,11.05c0.03-0.24,0.06-0.49,0.09-0.75c0.03-0.26,0.06-0.53,0.09-0.81
		c0.08,0.4,0.14,0.73,0.19,0.98c0.05,0.26,0.09,0.44,0.12,0.55l0.86,3.78l-1.87,0.08L57.79,11.05z M56.68,19.21l0.27-2.06l2.68-0.11
		l0.43,2.03l1.88-0.08L59.06,7.57l-2.36,0.1l-1.88,11.61L56.68,19.21z"/>
	<path id="XMLID_28_" class="st11" d="M65.74,15.11l0.25-2.41l3.69,0.37c0,0.08-0.01,0.16-0.02,0.26c-0.01,0.09-0.03,0.23-0.05,0.41
		c-0.2,1.97-0.67,3.48-1.4,4.5c-0.73,1.03-1.67,1.48-2.8,1.36c-0.56-0.05-1.04-0.24-1.45-0.57c-0.41-0.33-0.75-0.79-1.04-1.4
		c-0.27-0.58-0.46-1.25-0.56-2.02c-0.1-0.77-0.11-1.56-0.02-2.37c0.08-0.87,0.25-1.64,0.5-2.34c0.25-0.7,0.58-1.32,0.98-1.86
		c0.4-0.53,0.84-0.91,1.32-1.16c0.48-0.24,0.97-0.33,1.49-0.28c0.68,0.06,1.25,0.35,1.73,0.84c0.47,0.5,0.83,1.21,1.1,2.12
		l-1.75,1.13c-0.15-0.47-0.34-0.82-0.56-1.05c-0.22-0.24-0.48-0.37-0.78-0.4c-0.57-0.06-1.04,0.21-1.43,0.8
		c-0.38,0.59-0.63,1.42-0.74,2.5c-0.11,1.09-0.03,1.96,0.22,2.62c0.26,0.66,0.67,1.01,1.23,1.07c0.48,0.05,0.9-0.11,1.25-0.47
		c0.36-0.35,0.61-0.85,0.72-1.49L65.74,15.11z"/>
	<polygon id="XMLID_27_" class="st11" points="69.74,19.95 72.44,8.74 76.56,9.73 75.97,12.19 73.64,11.62 73.17,13.59 75.37,14.11 
		74.8,16.51 72.59,15.98 72.14,17.86 74.47,18.42 73.87,20.94 	"/>
	<path id="XMLID_26_" class="st11" d="M82.09,24.03l-1.63-0.65l1.47-4.78c0.1-0.34,0.23-0.71,0.36-1.12
		c0.14-0.4,0.29-0.85,0.46-1.33c-0.21,0.43-0.53,0.97-0.91,1.59c-0.09,0.13-0.15,0.23-0.18,0.29l-2.87,4.67l-1.17-0.47l1.13-5.36
		c0-0.07,0.03-0.19,0.07-0.33c0.15-0.73,0.29-1.32,0.43-1.78c-0.18,0.4-0.36,0.79-0.54,1.18c-0.18,0.39-0.37,0.77-0.56,1.15
		l-2.23,4.48l-1.62-0.65l5.26-10.31l1.73,0.7l-1.22,5.9c-0.01,0.04-0.03,0.11-0.05,0.21c-0.1,0.52-0.22,0.97-0.33,1.33
		c0.09-0.19,0.19-0.39,0.31-0.61c0.13-0.22,0.29-0.48,0.47-0.78l3.18-5.11l1.73,0.68L82.09,24.03z"/>
	<polygon id="XMLID_25_" class="st11" points="82.56,24.43 88.31,14.44 91.98,16.54 90.72,18.74 88.64,17.54 87.64,19.28 
		89.6,20.41 88.37,22.56 86.4,21.43 85.45,23.1 87.53,24.29 86.24,26.54 	"/>
	<path id="XMLID_22_" class="st11" d="M87.01,26.96l7.04-9.13l1.44,1.11l-1.53,6.29c-0.05,0.12-0.12,0.37-0.26,0.73
		c-0.13,0.36-0.3,0.78-0.49,1.27c0.26-0.4,0.5-0.76,0.71-1.06c0.22-0.31,0.41-0.57,0.59-0.8l3.47-4.51l1.44,1.11l-7.04,9.13
		l-1.44-1.11l1.56-6.31c0.03-0.13,0.11-0.37,0.25-0.73c0.12-0.36,0.29-0.78,0.48-1.25c-0.27,0.41-0.51,0.76-0.72,1.07
		c-0.21,0.31-0.41,0.58-0.58,0.8l-3.48,4.51L87.01,26.96z"/>
	<polygon id="XMLID_21_" class="st11" points="93.83,32.58 100.08,26.39 98.99,25.29 100.92,23.37 104.43,26.9 102.49,28.83 
		101.4,27.72 95.15,33.93 	"/>
	<path id="XMLID_17_" class="st11" d="M101.74,38.67c-0.2-0.06-0.36-0.16-0.43-0.28c-0.12-0.18-0.12-0.39-0.02-0.64
		c0.11-0.23,0.31-0.45,0.59-0.64c0.21-0.15,0.45-0.26,0.73-0.32c0.28-0.07,0.6-0.1,1-0.1l-1.05,2.07
		C102.22,38.77,101.95,38.74,101.74,38.67 M102.3,43.32l1.32-2.69c0.27,0.01,0.57,0.01,0.86-0.02c0.32-0.02,0.65-0.05,1.02-0.11
		l0.86-1.76c-0.36,0.04-0.7,0.07-1.01,0.08c-0.3,0.02-0.59,0.02-0.86,0.01l0.72-1.47c0.56,0.1,1.1,0.09,1.61-0.02
		c0.51-0.1,1-0.31,1.46-0.63c0.72-0.49,1.19-1.02,1.41-1.61c0.22-0.58,0.15-1.14-0.19-1.66c-0.31-0.46-0.78-0.69-1.41-0.7
		c-0.64-0.01-1.27,0.2-1.91,0.63c-0.32,0.21-0.6,0.47-0.87,0.78c-0.27,0.31-0.52,0.66-0.75,1.06c-0.71-0.19-1.37-0.23-1.97-0.13
		c-0.6,0.1-1.21,0.35-1.8,0.75c-0.78,0.52-1.31,1.11-1.6,1.78c-0.27,0.67-0.25,1.25,0.1,1.76c0.25,0.37,0.58,0.64,0.98,0.81
		c0.41,0.17,0.92,0.25,1.53,0.24l-0.65,1.16L102.3,43.32z M106.19,35.41c0.08-0.14,0.17-0.29,0.31-0.43
		c0.13-0.14,0.24-0.25,0.35-0.32c0.26-0.18,0.49-0.28,0.71-0.28c0.21,0,0.37,0.08,0.49,0.25c0.1,0.15,0.11,0.31,0.03,0.51
		c-0.08,0.18-0.24,0.36-0.47,0.51c-0.17,0.12-0.37,0.2-0.6,0.25c-0.23,0.05-0.49,0.07-0.75,0.06l-0.38-0.02L106.19,35.41z"/>
	<polygon id="XMLID_16_" class="st11" points="104.19,47.33 112.29,43.87 111.69,42.45 114.18,41.38 116.15,45.95 113.63,47.02 
		113.03,45.6 104.93,49.05 	"/>
	<polygon id="XMLID_15_" class="st11" points="105.73,51.08 116.76,47.71 117.99,51.76 115.58,52.5 114.88,50.2 112.95,50.78 
		113.62,52.95 111.25,53.68 110.58,51.51 108.74,52.07 109.44,54.37 106.96,55.12 	"/>
	<path id="XMLID_14_" class="st11" d="M119,58.94l-3.4,0.62c0.43-0.35,0.73-0.66,0.91-0.96c0.17-0.28,0.24-0.57,0.18-0.86
		c-0.09-0.53-0.48-0.91-1.15-1.12c-0.67-0.23-1.49-0.24-2.47-0.06c-0.9,0.16-1.62,0.47-2.16,0.92c-0.54,0.44-0.75,0.92-0.67,1.45
		c0.06,0.29,0.22,0.54,0.48,0.74c0.26,0.21,0.66,0.4,1.18,0.57l-3.39,0.62c-0.29-0.25-0.52-0.51-0.7-0.78
		c-0.17-0.27-0.28-0.56-0.34-0.85c-0.07-0.37-0.06-0.73,0.03-1.08c0.1-0.34,0.27-0.67,0.51-0.99c0.48-0.61,1.12-1.13,1.93-1.56
		c0.82-0.42,1.76-0.74,2.85-0.93c0.86-0.15,1.66-0.22,2.41-0.18c0.74,0.04,1.43,0.17,2.08,0.41c0.61,0.23,1.09,0.52,1.44,0.86
		c0.35,0.35,0.57,0.78,0.66,1.27c0.05,0.3,0.04,0.6-0.02,0.92C119.3,58.27,119.19,58.6,119,58.94"/>
	<polygon id="XMLID_13_" class="st11" points="108.19,61.62 119.71,61.08 119.8,62.96 115.32,63.17 115.43,65.68 119.92,65.48 
		120,67.38 108.48,67.9 108.39,66.01 113.07,65.79 112.96,63.28 108.28,63.49 	"/>
	<path id="XMLID_12_" class="st11" d="M108.46,68.93l11.46,1.26l-0.2,1.8l-6.19,1.96c-0.12,0.03-0.37,0.09-0.75,0.16
		c-0.38,0.08-0.82,0.16-1.34,0.24c0.48,0.01,0.91,0.03,1.28,0.06c0.37,0.02,0.7,0.05,0.99,0.08l5.66,0.62l-0.2,1.81l-11.46-1.27
		l0.2-1.8l6.21-1.95c0.12-0.04,0.37-0.1,0.75-0.17c0.37-0.07,0.81-0.15,1.32-0.23c-0.48-0.01-0.91-0.04-1.28-0.06
		c-0.38-0.02-0.7-0.05-0.99-0.08l-5.65-0.63L108.46,68.93z"/>
	<path id="XMLID_9_" class="st11" d="M110.15,79.56c0.71-0.15,1.53-0.09,2.49,0.17c0.93,0.26,1.67,0.65,2.2,1.15
		c0.53,0.5,0.72,1,0.58,1.5c-0.13,0.5-0.56,0.82-1.28,0.97c-0.71,0.16-1.54,0.1-2.47-0.15c-0.94-0.27-1.68-0.65-2.21-1.15
		c-0.52-0.5-0.72-1-0.58-1.5C109.03,80.04,109.45,79.71,110.15,79.56 M113.47,85.39c0.75,0.02,1.45-0.06,2.09-0.24
		c0.63-0.18,1.17-0.45,1.59-0.81c0.42-0.36,0.7-0.77,0.83-1.23c0.14-0.49,0.12-0.98-0.06-1.5c-0.17-0.52-0.49-1.02-0.94-1.5
		c-0.45-0.5-1.01-0.94-1.66-1.31c-0.65-0.37-1.38-0.66-2.17-0.89c-0.78-0.22-1.55-0.34-2.31-0.36c-0.75-0.02-1.45,0.07-2.1,0.25
		c-0.64,0.18-1.17,0.44-1.58,0.79c-0.43,0.36-0.69,0.77-0.83,1.26c-0.14,0.47-0.12,0.96,0.06,1.48c0.17,0.51,0.48,1.02,0.94,1.51
		c0.45,0.49,1.01,0.92,1.66,1.29c0.65,0.37,1.37,0.67,2.18,0.9C111.95,85.25,112.72,85.36,113.47,85.39"/>
	<polygon id="XMLID_8_" class="st11" points="105.23,84.19 115.83,88.75 115.08,90.47 106.96,86.98 106.03,89.14 103.56,88.08 	"/>
	<path id="XMLID_4_" class="st11" d="M105.21,91.94c0.72,0.04,1.51,0.31,2.35,0.82c0.84,0.5,1.45,1.05,1.83,1.68
		c0.38,0.61,0.44,1.15,0.17,1.6c-0.26,0.44-0.76,0.64-1.49,0.61c-0.73-0.03-1.52-0.3-2.35-0.79c-0.85-0.51-1.46-1.06-1.84-1.69
		c-0.38-0.61-0.44-1.15-0.17-1.59C104,92.12,104.5,91.91,105.21,91.94 M106.9,98.44c0.73,0.21,1.42,0.32,2.09,0.31
		c0.67-0.01,1.25-0.13,1.75-0.37c0.5-0.23,0.87-0.56,1.12-0.99c0.24-0.42,0.36-0.91,0.33-1.46c-0.03-0.54-0.2-1.11-0.52-1.68
		c-0.31-0.6-0.73-1.17-1.26-1.7c-0.53-0.53-1.14-1-1.86-1.42c-0.71-0.42-1.43-0.74-2.15-0.95c-0.72-0.22-1.42-0.32-2.09-0.3
		c-0.66,0.01-1.24,0.13-1.74,0.36c-0.49,0.23-0.87,0.56-1.12,0.99c-0.25,0.42-0.36,0.9-0.33,1.44c0.04,0.55,0.2,1.11,0.51,1.71
		c0.31,0.59,0.75,1.15,1.27,1.68c0.53,0.53,1.15,1.01,1.87,1.42C105.47,97.9,106.19,98.22,106.9,98.44"/>
	<path id="XMLID_3_" class="st11" d="M100.53,100.37l1.86,1.55l-2.38,2.84c-0.07-0.05-0.13-0.1-0.2-0.15
		c-0.08-0.07-0.18-0.16-0.32-0.27c-1.52-1.28-2.5-2.51-2.94-3.69c-0.43-1.18-0.29-2.21,0.45-3.09c0.36-0.42,0.78-0.72,1.28-0.87
		c0.5-0.15,1.08-0.18,1.74-0.07c0.63,0.1,1.29,0.33,1.98,0.67c0.7,0.35,1.36,0.79,1.99,1.31c0.67,0.55,1.22,1.13,1.66,1.73
		c0.44,0.59,0.77,1.21,0.99,1.85c0.21,0.63,0.27,1.21,0.21,1.74c-0.07,0.54-0.27,0.99-0.6,1.39c-0.44,0.51-0.99,0.84-1.67,0.94
		c-0.68,0.11-1.47,0.02-2.38-0.28l0.06-2.08c0.46,0.14,0.86,0.17,1.18,0.13c0.32-0.04,0.59-0.19,0.78-0.42
		c0.36-0.44,0.41-0.98,0.14-1.62c-0.27-0.64-0.83-1.32-1.67-2.03c-0.84-0.7-1.61-1.13-2.3-1.28c-0.69-0.16-1.22-0.02-1.58,0.42
		c-0.3,0.37-0.42,0.8-0.32,1.29c0.09,0.5,0.37,0.97,0.84,1.43L100.53,100.37z"/>
	<path id="XMLID_2_" class="st11" d="M93.48,101.68l3.56,3.88l6,3l-1.59,1.45l-2.69-1.57c-0.02-0.01-0.04-0.02-0.08-0.05
		c-0.28-0.16-0.53-0.34-0.75-0.52c0.16,0.21,0.29,0.47,0.43,0.77c0.02,0.05,0.04,0.09,0.05,0.11l1.33,2.81l-1.61,1.46l-2.45-6.26
		l-3.55-3.88L93.48,101.68z"/>
</g>
</svg>
